:FULLY-SPECIFIED
:FORCE-ALL-JOINTS-BE-3DOF
:DEGREES
442
root 2.19424 15.4732 -8.97113 4.72166 5.10617 -13.0387
lfemur -41.984 10.962 2.63995
ltibia 61.8766 -0 0
lfoot -29.0687 -8.75091 -0.187524
ltoes -12.6231 0 0
rfemur -14.463 8.00613 5.0873
rtibia 35.4081 -0 0
rfoot -5.15203 -7.43734 0.0329088
rtoes -55.5183 0 0
lowerback 4.50975 0.599178 5.31786
upperback 0.755487 1.07254 1.24172
thorax -1.66058 0.514369 -1.78137
lowerneck -7.28856 0.342757 6.28064
upperneck 3.05262 -0.124998 -0.244876
head 2.25926 0.0152196 -1.17509
lclavicle -1.95803e-014 1.41137e-014 0
lhumerus -42.3508 -29.4767 99.1927
lradius 52.4183 -0 0
lwrist 7.42793 0 0
lhand -18.3905 -2.47718 0.0381014
lfingers 7.12502 -0 0
lthumb 7.89629 27.3861 0.0484923
rclavicle -1.95803e-014 1.41137e-014 0
rhumerus -51.8361 -4.44529 -86.8372
rradius 67.2401 -0 0
rwrist 12.6585 0 0
rhand -36.5608 -31.3336 -0.206283
rfingers 7.12502 -0 0
rthumb -9.65074 -61.1752 -0.205024
443
root 2.22166 15.4989 -8.91341 4.70541 6.85709 -13.0704
lfemur -42.4054 11.2998 1.81542
ltibia 61.7456 -0 0
lfoot -28.8091 -8.58584 -0.182123
ltoes -11.6349 0 0
rfemur -13.6739 7.86623 5.34901
rtibia 35.3885 -0 0
rfoot -3.63992 -7.48279 0.0399267
rtoes -55.7562 0 0
lowerback 4.31203 0.55992 5.35389
upperback 0.676654 1.01256 1.297
thorax -1.63484 0.484559 -1.74065
lowerneck -7.3462 0.140226 6.1267
upperneck 3.03188 -0.384858 -0.231473
head 2.25567 -0.115752 -1.15452
lclavicle -1.95803e-014 1.41137e-014 0
lhumerus -42.5578 -29.3035 99.4633
lradius 52.4117 -0 0
lwrist 7.13899 0 0
lhand -18.6496 -2.9485 0.039019
lfingers 7.12502 -0 0
lthumb 7.64689 26.9327 0.0525708
rclavicle -1.95803e-014 1.41137e-014 0
rhumerus -52.1569 -4.67494 -86.4183
rradius 66.9294 -0 0
rwrist 12.5324 0 0
rhand -36.5975 -31.448 -0.231608
rfingers 7.12502 -0 0
rthumb -9.68605 -61.2994 -0.230943
444
root 2.24909 15.5245 -8.85569 4.6908 8.64213 -13.0913
lfemur -42.8391 11.6385 0.929776
ltibia 61.581 -0 0
lfoot -28.5087 -8.38014 -0.171418
ltoes -10.5782 0 0
rfemur -12.8646 7.66822 5.64299
rtibia 35.4315 -0 0
rfoot -2.03449 -7.52937 0.0486259
rtoes -55.8759 0 0
lowerback 4.10467 0.524089 5.38452
upperback 0.594953 0.956232 1.35097
thorax -1.60671 0.456562 -1.69836
lowerneck -7.40498 -0.07121 5.96579
upperneck 3.01106 -0.655963 -0.215144
head 2.252 -0.252322 -1.13224
lclavicle -1.95803e-014 1.41137e-014 0
lhumerus -42.7774 -29.1051 99.7395
lradius 52.4038 -0 0
lwrist 6.85192 0 0
lhand -18.9201 -3.43522 0.0378143
lfingers 7.12502 -0 0
lthumb 7.38652 26.4648 0.0548406
rclavicle -1.95803e-014 1.41137e-014 0
rhumerus -52.486 -4.89416 -85.9851
rradius 66.5954 -0 0
rwrist 12.3933 0 0
rhand -36.6113 -31.5506 -0.255094
rfingers 7.12502 -0 0
rthumb -9.69909 -61.4123 -0.255152
445
root 2.27651 15.5502 -8.79797 4.6777 10.4572 -13.1018
lfemur -43.2831 11.9733 -0.0105943
ltibia 61.3855 -0 0
lfoot -28.1717 -8.13786 -0.156475
ltoes -9.46062 0 0
rfemur -12.0431 7.41649 5.96419
rtibia 35.5339 -0 0
rfoot -0.348389 -7.57557 0.0591903
rtoes -55.8849 0 0
lowerback 3.88923 0.491425 5.40973
upperback 0.510878 0.903331 1.40357
thorax -1.57655 0.430257 -1.65457
lowerneck -7.46461 -0.290672 5.79861
upperneck 2.9905 -0.937161 -0.196039
head 2.24837 -0.393913 -1.10838
lclavicle -1.95803e-014 1.41137e-014 0
lhumerus -43.0077 -28.8845 100.02
lradius 52.395 -0 0
lwrist 6.56731 0 0
lhand -19.1985 -3.93416 0.0343228
lfingers 7.12502 -0 0
lthumb 7.11856 25.9851 0.0550866
rclavicle -1.95803e-014 1.41137e-014 0
rhumerus -52.8209 -5.10047 -85.541
rradius 66.2424 -0 0
rwrist 12.2437 0 0
rhand -36.6021 -31.6413 -0.276508
rfingers 7.12502 -0 0
rthumb -9.68992 -61.5136 -0.277395
